# xmcd
#
# Track frame offsets:
# 150
# 60458
# 122333
# 196749
# 256774
# 288948
#
# Disc length: 4402 seconds
#
#
# Revision: 1
# Processed by: cddbd v1.5.2PL0 Copyright (c) Steve Scherf et al.
# Submitted via: FreeRIP 2.951 
#
DISCID=46113006
DTITLE=Jessica Durlacher - Die Tochter
DYEAR=2000
DGENRE=Lesung
TTITLE0=Von unserer ersten...
TTITLE1=Judith war die...
TTITLE2=Am vierten Tag...
TTITLE3=Wir hatten ein eigenartiges...
TTITLE4=Auf ihre eine Gesichts...
TTITLE5=So schlank sie auch...
EXTD=YEAR: 2000\nHörbuch
EXTT0=
EXTT1=
EXTT2=
EXTT3=
EXTT4=
EXTT5=
PLAYORDER=
